<?xml version="1.0" encoding="UTF-8" standalone="no"?>
<!-- Created with Inkscape (http://www.inkscape.org/) -->

<svg
   xmlns:dc="http://purl.org/dc/elements/1.1/"
   xmlns:cc="http://creativecommons.org/ns#"
   xmlns:rdf="http://www.w3.org/1999/02/22-rdf-syntax-ns#"
   xmlns:svg="http://www.w3.org/2000/svg"
   xmlns="http://www.w3.org/2000/svg"
   xmlns:sodipodi="http://sodipodi.sourceforge.net/DTD/sodipodi-0.dtd"
   xmlns:inkscape="http://www.inkscape.org/namespaces/inkscape"
   id="svg8"
   version="1.1"
   viewBox="0 0 210 297"
   height="297mm"
   width="210mm"
   sodipodi:docname="SITE CONCEPT.svg"
   inkscape:version="0.92.4 (5da689c313, 2019-01-14)">
  <defs
     id="defs2" />
  <sodipodi:namedview
     id="base"
     pagecolor="#ffffff"
     bordercolor="#666666"
     borderopacity="1.0"
     inkscape:pageopacity="0.0"
     inkscape:pageshadow="2"
     inkscape:zoom="1.288373"
     inkscape:cx="229.32119"
     inkscape:cy="494.54334"
     inkscape:document-units="mm"
     inkscape:current-layer="layer1"
     showgrid="false"
     inkscape:window-width="1600"
     inkscape:window-height="837"
     inkscape:window-x="-8"
     inkscape:window-y="-8"
     inkscape:window-maximized="1" />
  <metadata
     id="metadata5">
    <rdf:RDF>
      <cc:Work
         rdf:about="">
        <dc:format>image/svg+xml</dc:format>
        <dc:type
           rdf:resource="http://purl.org/dc/dcmitype/StillImage" />
      </cc:Work>
    </rdf:RDF>
  </metadata>
  <g
     inkscape:label="Camada 1"
     inkscape:groupmode="layer"
     id="layer1">
    <path
       style="fill:#666666;fill-opacity:1;stroke-width:0.04925849"
       d="m 83.878989,39.448233 -13.860545,8.002369 v 16.004459 l 13.860545,8.002367 13.860269,-8.002367 V 47.450602 Z M 40.320075,64.302585 26.45953,72.304952 V 88.309688 L 40.320075,96.31178 54.180344,88.309688 V 72.304952 Z m 28.850845,0 -13.860269,8.002367 V 88.309688 L 69.17092,96.31178 83.031465,88.309688 V 72.304952 Z m 29.133354,0.282508 -13.860269,8.002367 v 16.004736 l 13.860269,8.002369 13.860546,-8.002369 V 72.58746 Z M 25.612006,89.157212 11.751737,97.159304 v 16.004736 l 13.860269,8.00237 13.860545,-8.00237 V 97.159304 Z M 54.745635,89.43972 40.88509,97.441812 v 16.004738 l 13.860545,8.00237 13.86027,-8.00237 V 97.441812 Z"
       id="path822"
       inkscape:connector-curvature="0" />
    <path
       inkscape:connector-curvature="0"
       id="path822-8"
       d="m 65.489715,181.60622 c 0,0 -1.543003,3.5535 -1.543003,3.5535 0,0 -8.452141,0.1747 -8.452141,0.1747 0,0 -5.320196,-3.37217 -5.320196,-3.37217 0,0 2.530983,-2.96275 2.530983,-2.96275 0,0 6.999299,-0.17772 6.999299,-0.17772 0,0 5.785058,2.78444 5.785058,2.78444 m -5.963762,14.18809 c 0,0 -3.107268,7.2216 -3.107268,7.2216 0,0 -12.193661,0.0931 -12.193661,0.0931 0,0 -5.910892,-7.04057 -5.910892,-7.04057 0,0 4.723235,-5.55381 4.723235,-5.55381 0,0 9.383393,-0.15959 9.383393,-0.15959 0,0 7.105193,5.4393 7.105193,5.4393 m -4.37557,-10.21609 c 0,0 -2.854011,4.38286 -2.854011,4.38286 0,0 -9.296036,0.16083 -9.296036,0.16083 0,0 -4.537331,-4.20167 -4.537331,-4.20167 0,0 3.803443,-3.58076 3.803443,-3.58076 0,0 7.568045,-0.17484 7.568045,-0.17484 0,0 5.31589,3.41358 5.31589,3.41358 m -2.981862,-6.67314 c 0,0 -2.568316,2.94209 -2.568316,2.94209 0,0 -7.495556,0.17496 -7.495556,0.17496 0,0 -3.663872,-2.76738 -3.663872,-2.76738 0,0 3.187514,-2.5001 3.187514,-2.5001 0,0 6.33014,-0.17264 6.33014,-0.17264 0,0 4.21009,2.32307 4.21009,2.32307 m -8.541479,24.71203 c 0,0 -6.317902,9.76062 -6.317902,9.76062 0,0 -14.026787,0 -14.026787,0 0,0 -3.587701,-9.58692 -3.587701,-9.58692 0,0 7.624373,-7.20281 7.624373,-7.20281 0,0 10.432506,-0.13184 10.432506,-0.13184 0,0 5.875511,7.16095 5.875511,7.16095 m -1.262836,-13.28858 c 0,0 -4.779338,5.49898 -4.779338,5.49898 0,0 -10.295236,0.13496 -10.295236,0.13496 0,0 -3.205186,-5.32035 -3.205186,-5.32035 0,0 5.574922,-4.38503 5.574922,-4.38503 0,0 8.217299,-0.16745 8.217299,-0.16745 0,0 4.487539,4.23889 4.487539,4.23889"
       style="fill:#666666;fill-opacity:1;stroke-width:0.04925849" />
    <g
       id="g4780"
       transform="matrix(0.82897661,0,0,0.82897661,-49.031716,-18.515419)">
      <path
         inkscape:connector-curvature="0"
         id="path4776"
         d="m 84.090268,219.05203 3.924456,2.15693 3.944644,-2.18607 0.73529,-6.09875 -4.684884,-1.60923 -4.655032,1.63822 z"
         style="fill:#ffffff;stroke:none;stroke-width:0.26458332px;stroke-linecap:butt;stroke-linejoin:miter;stroke-opacity:1" />
      <path
         style="fill:#c4473a;stroke-width:0.07855666"
         inkscape:connector-curvature="0"
         d="m 87.149895,216.26193 h 1.8288 l -0.972139,-2.03281 z m 0.859881,-4.94702 -4.655032,1.63822 0.735526,6.0989 3.924456,2.15693 3.944644,-2.18607 0.73529,-6.09875 z m -1.238524,5.81115 -0.570714,1.42784 -1.066878,0.004 2.875802,-6.3693 -0.0055,-0.012 h -0.005 l 7.9e-5,-0.0104 0.0049,0.0104 h 0.01108 l 0.0097,-0.0215 v 0.0215 h -0.0097 l -0.0054,0.012 3.000002,6.39585 -1.027051,-0.0225 -0.631753,-1.45958 -1.349054,0.006"
         id="path4763" />
    </g>
    <path
       id="path4654"
       d="m 122.35107,196.05933 2.25233,-3.8892 1.08834,3.8892 -1.08839,3.88826 z m -1.09775,0.63159 2.25262,3.88855 -3.92309,-1.00503 -2.83418,-2.88352 z m 2.25213,-5.15287 -2.25213,3.8892 h -4.50465 l 2.83418,-2.88372 z m 3.21531,3.1977 -1.37406,-5.11191 -5.12868,1.36999 -0.7592,1.33476 -1.54052,-0.011 -3.75388,3.74211 3.75388,3.74123 h 1.6e-4 l 1.53988,-0.0113 0.76028,1.33476 5.12809,1.36974 1.37401,-5.11093 -0.78034,-1.32372 0.78034,-1.32353 z"
       inkscape:connector-curvature="0"
       style="fill:#000000;stroke-width:0.04905954" />
    <rect
       style="fill:#cccccc;fill-opacity:1;stroke:none;stroke-width:0.26458332"
       id="rect4782"
       width="12.677071"
       height="15.986756"
       x="25.14278"
       y="191.70047"
       ry="6.3385353" />
    <rect
       style="fill:#cccccc;fill-opacity:1;stroke:none;stroke-width:0.22172211"
       id="rect4782-1-5"
       width="10.623446"
       height="13.39698"
       x="27.196404"
       y="178.3035"
       ry="5.3117232" />
    <rect
       style="fill:#cccccc;fill-opacity:1;stroke:#000000;stroke-width:0.1487699"
       id="rect4782-1-5-7-6-6"
       width="7.1280622"
       height="8.9890337"
       x="42.104649"
       y="171.44565"
       ry="3.5640311" />
    <rect
       style="fill:#cccccc;fill-opacity:1;stroke:#000000;stroke-width:0.1788609"
       id="rect4782-1-5-7"
       width="8.5698223"
       height="10.807204"
       x="41.628292"
       y="177.813"
       ry="4.2849112" />
    <rect
       style="fill:#cccccc;fill-opacity:1;stroke:#000000;stroke-width:0.22172211"
       id="rect4782-1"
       width="10.623446"
       height="13.396979"
       x="43.844315"
       y="186.10016"
       ry="5.3117232" />
    <rect
       style="fill:#cccccc;fill-opacity:1;stroke:#000000;stroke-width:0.1487699"
       id="rect4782-1-5-7-6"
       width="7.1280622"
       height="8.9890337"
       x="54.452717"
       y="173.95122"
       ry="3.5640311" />
  </g>
</svg>
